<svg width="510" height="1039" xmlns="http://www.w3.org/2000/svg" preserveAspectRatio="xMidYMid meet">
 <metadata>Created by potrace 1.15, written by Peter Selinger 2001-2017</metadata>

 <g>
  <title>background</title>
  <rect fill="none" id="canvas_background" height="1041" width="512" y="-1" x="-1"/>
 </g>
 <g>
  <title>Layer 1</title>
  <g id="svg_1" fill="#000000" transform="translate(0,1280) scale(0.10000000149011612,-0.10000000149011612) ">
   <path id="svg_2" d="m1551.822247,12759c-365,-4 -675,-12 -730,-18c-137,-17 -242,-46 -344,-96c-163,-79 -274,-190 -350,-350c-84,-176 -94,-265 -95,-790c-1,-327 -3,-393 -15,-409c-22,-29 -22,-643 0,-672c21,-28 21,-380 0,-408c-22,-29 -22,-641 0,-673c13,-18 15,-398 18,-3109l2,-3089l23,-85c67,-249 220,-427 452,-525c35,-15 111,-40 169,-55c58,-16 97,-29 86,-29c-15,-1 -16,-4 -7,-13c10,-10 376,-13 1760,-13c961,0 1760,4 1776,8c19,5 26,11 18,16c-7,4 29,17 81,29c341,83 541,265 629,577l23,80l3,3141c2,2767 4,3143 17,3154c22,18 22,671 0,690c-12,10 -15,145 -17,963l-3,952l-27,95c-33,121 -67,197 -123,275c-133,187 -346,301 -627,335c-47,6 -437,15 -865,20c-840,10 -901,10 -1854,-1zm3306,-5189l0,-4115l-2320,0l-2320,0l-3,4109c-2,3281 0,4111 10,4118c7,4 1053,7 2323,5l2310,-2l0,-4115z"/>
  </g>
 </g>
</svg>