<svg width="302" height="606" xmlns="http://www.w3.org/2000/svg" preserveAspectRatio="xMidYMid meet">
 <metadata>Created by potrace 1.15, written by Peter Selinger 2001-2017</metadata>

 <g>
  <title>background</title>
  <rect fill="none" id="canvas_background" height="608" width="304" y="-1" x="-1"/>
 </g>
 <g>
  <title>Layer 1</title>
  <g id="svg_1" fill="#000000" transform="translate(0,720) scale(0.10000000149011612,-0.10000000149011612) ">
   <path id="svg_2" d="m386.218117,7150.148926c-79,-10 -169,-48 -217,-93c-44,-42 -87,-133 -101,-215c-7,-48 -10,-820 -8,-2722l3,-2655l26,-67c14,-36 40,-84 57,-105c37,-47 126,-96 200,-112c37,-8 392,-11 1174,-11c1204,0 1178,-1 1279,50c51,27 114,101 141,169l23,56l3,1193c2,1043 4,1192 17,1192c23,0 22,735 0,744c-12,4 -15,27 -15,121c0,96 3,115 15,115c13,0 15,27 15,180c0,152 -2,180 -15,180c-12,0 -15,111 -17,853c-3,802 -4,855 -22,903c-47,131 -148,205 -306,224c-100,12 -2149,12 -2252,0zm2482,-3030l0,-2400l-1355,0l-1355,0l0,2400l0,2400l1355,0l1355,0l0,-2400z"/>
  </g>
 </g>
</svg>