<svg id="icons" enable-background="new 0 0 64 64" height="512" viewBox="0 0 64 64" width="512" xmlns="http://www.w3.org/2000/svg"><g><g><path d="m38.995.995 3 3h-20l3-3z" fill="#656d78"/></g><g><path d="m31.995 56.995v3.01h-14.99v-2.01-1z" fill="#656d78"/></g><g><path d="m31.995 60.005v2.99h-14.99v-1.99-1z" fill="#4a89dc"/></g><g><path d="m41.995 3.995v4l-10 8-9.99-8h-.01v-4l10 8z" fill="#656d78"/></g><g><path d="m46.995 57.995v2.01h-15v-3.01h15z" fill="#656d78"/></g><g><path d="m53.995 13.005v41.98h-6.99-.01v-32.98h.01z" fill="#e6e9ed"/></g><g><path d="m41.995 3.995-10 8-10-8z" fill="#545c66"/></g><g><path d="m47.005 54.985h6.99v3.01h-6.99-.01v-1-2.01z" fill="#4a89dc"/></g><g><path d="m17.005 23.005v31.98h-7v-41.98l6.99 10z" fill="#e6e9ed"/></g><g><path d="m17.005 56.995v1h-7v-3.01h7z" fill="#4a89dc"/></g><g><path d="m46.995 61.005v1.99h-15v-2.99h15z" fill="#4a89dc"/></g><path d="m41.995 7.995-10 8-9.99-8h-.01l-11.99 5v.01l6.99 10h.01v31.98 2.01h14.99 15v-2.01-32.98h.01l6.99-9v-.01z" fill="#5d9cec"/><path d="m30.992 15.192v41.803h1.003.997v-41.798l-.997.798z" fill="#4a89dc"/><g><path d="m36.994 31.995c-.553 0-1-.447-1-1v-5c0-.553.447-1 1-1s1 .447 1 1v5c0 .553-.447 1-1 1z" fill="#e6e9ed"/></g><g><path d="m41.994 31.995h-5c-.553 0-1-.447-1-1s.447-1 1-1h5c.553 0 1 .447 1 1s-.447 1-1 1z" fill="#e6e9ed"/></g><g><path d="m41.995 31.995c-.35 0-.688-.184-.872-.51l-2.813-5c-.271-.481-.101-1.091.381-1.361.482-.273 1.091-.101 1.361.381l2.813 5c.271.481.101 1.091-.381 1.361-.155.088-.323.129-.489.129z" fill="#e6e9ed"/></g><g><path d="m41.994 26.995h-2.813c-.553 0-1-.447-1-1s.447-1 1-1h2.813c.553 0 1 .447 1 1s-.447 1-1 1z" fill="#e6e9ed"/></g><g fill="#545c66"><path d="m16.005 57.995h-5-1v1 1.01c0 .55.45 1 1 1h5c.55 0 1-.45 1-1v-1.01-1z"/><path d="m52.995 57.995h-5-1v1 1.01c0 .55.45 1 1 1h5c.55 0 1-.45 1-1v-1.01-1z"/><path d="m30.992 56.995h2v3.01h-2z"/></g><path d="m30.992 59.995h2v3.01h-2z" fill="#3679ce"/></g></svg>