<svg height="512pt" viewBox="0 0 512 512" width="512pt" xmlns="http://www.w3.org/2000/svg"><path d="m444 382v-312c0-11.027344-12.972656-20-24-20h-332c-11.027344 0-20 8.972656-20 20v312h-40v-312c0-33.085938 26.914062-60 60-60h332c33.085938 0 64 26.914062 64 60v312zm0 0" fill="#c8e7f9"/><path d="m28 382h456v80h-456zm0 0" fill="#8296aa"/><path d="m10 462h492v40h-492zm0 0" fill="#9b4b14"/><path d="m284 281c0 16.570312-13.429688 30-30 30s-30-13.429688-30-30 13.429688-30 30-30 30 13.429688 30 30zm0 0" fill="#e6e6e6"/><g fill="#8296aa"><path d="m284 50c0 22.089844-13.429688 40-30 40s-30-17.910156-30-40zm0 0"/><path d="m224 50c0 22.089844-13.429688 40-30 40s-30-17.910156-30-40zm0 0"/><path d="m344 50c0 22.089844-13.429688 40-30 40s-30-17.910156-30-40zm0 0"/><path d="m404 50c0 22.089844-13.429688 40-30 40s-30-17.910156-30-40zm0 0"/></g><path d="m168.136719 270.351562c0 16.566407-13.429688 30-30 30-16.566407 0-30-13.433593-30-30 0-16.570312 13.433593-30 30-30 16.570312 0 30 13.429688 30 30zm0 0" fill="#e6e6e6"/><path d="m344 281c0 16.570312-13.429688 30-30 30s-30-13.429688-30-30 13.429688-30 30-30 30 13.429688 30 30zm0 0" fill="#e6e6e6"/><path d="m404 281c0 16.570312-13.429688 30-30 30s-30-13.429688-30-30 13.429688-30 30-30 30 13.429688 30 30zm0 0" fill="#e6e6e6"/><path d="m502 452h-8v-382c0-18.613281-8.109375-36.292969-22.839844-49.78125-14.03125-12.851562-32.679687-20.21875-51.160156-20.21875h-332c-38.597656 0-70 31.402344-70 70v382h-8c-5.523438 0-10 4.476562-10 10v40c0 5.523438 4.476562 10 10 10h492c5.523438 0 10-4.476562 10-10v-40c0-5.523438-4.476562-10-10-10zm-248-191c11.027344 0 20 8.972656 20 20s-8.972656 20-20 20-20-8.972656-20-20 8.972656-20 20-20zm10-18.734375v-143.847656c7.859375-2.539063 14.785156-8.003907 20-15.398438 5.214844 7.394531 12.140625 12.859375 20 15.398438v143.847656c-7.859375 2.03125-14.785156 6.40625-20 12.320313-5.214844-5.914063-12.140625-10.289063-20-12.320313zm50 18.734375c11.027344 0 20 8.972656 20 20s-8.972656 20-20 20-20-8.972656-20-20 8.972656-20 20-20zm10-18.734375v-143.847656c7.859375-2.539063 14.785156-8.003907 20-15.398438 5.214844 7.394531 12.140625 12.859375 20 15.398438v143.847656c-7.859375 2.03125-14.785156 6.40625-20 12.320313-5.214844-5.914063-12.140625-10.289063-20-12.320313zm50 18.734375c11.027344 0 20 8.972656 20 20s-8.972656 20-20 20-20-8.972656-20-20 8.972656-20 20-20zm0-181c-8.519531 0-15.996094-8.480469-18.8125-20h37.621094c-2.8125 11.519531-10.289063 20-18.808594 20zm-60 0c-8.519531 0-15.996094-8.480469-18.8125-20h37.621094c-2.8125 11.519531-10.289063 20-18.808594 20zm-60 0c-8.515625 0-15.996094-8.480469-18.8125-20h37.625c-2.816406 11.519531-10.292969 20-18.8125 20zm-60 0c-8.515625 0-15.996094-8.480469-18.8125-20h37.625c-2.816406 11.519531-10.296875 20-18.8125 20zm-39.195312-20c2.867187 17.578125 13.140624 31.820312 26.550781 37.425781l-39.640625 133.078125c-6.832032-.621094-13.746094.523438-20.160156 3.445313-9.722657 4.429687-17.140626 12.378906-20.882813 22.386719-7.726563 20.65625 2.792969 43.75 23.449219 51.480468 4.605468 1.71875 9.324218 2.535156 13.972656 2.535156 16.210938 0 31.5-9.929687 37.507812-25.988281 6.589844-17.617187-.097656-37.003906-15.027343-47.121093l41.164062-138.1875c8.792969-2.164063 16.550781-7.941407 22.261719-16.035157 5.214844 7.394531 12.140625 12.859375 20 15.398438v143.847656c-17.234375 4.453125-30 20.128906-30 38.734375 0 22.054688 17.945312 40 40 40 11.9375 0 22.664062-5.265625 30-13.585938 7.335938 8.320313 18.0625 13.585938 30 13.585938s22.664062-5.265625 30-13.585938c7.335938 8.320313 18.0625 13.585938 30 13.585938 22.054688 0 40-17.945312 40-40 0-18.605469-12.765625-34.28125-30-38.734375v-143.847656c14.695312-4.746094 26.144531-19.695313 29.195312-38.417969h6.804688c6.410156 0 14 5.421875 14 10v302.5h-356v-302.5c0-5.515625 4.484375-10 10-10zm-9.660157 191.617188c10.328125 3.863281 15.589844 15.410156 11.726563 25.738281-3.863282 10.328125-15.410156 15.589843-25.738282 11.726562-10.332031-3.863281-15.589843-15.410156-11.726562-25.738281 1.871094-5.003906 5.578125-8.980469 10.441406-11.191406 2.644532-1.207032 5.457032-1.8125 8.28125-1.8125 2.363282 0 4.734375.425781 7.015625 1.277344zm-107.144531-181.617188c0-27.570312 22.429688-50 50-50h332c28.765625 0 54 23.363281 54 50v302h-20v-302c0-17.171875-17.949219-30-34-30h-332c-16.542969 0-30 13.457031-30 30v302h-20zm0 362h178c5.511719 0 10-4.488281 10-10s-4.488281-10-10-10h-178v-19.5h436v19.5h-178c-5.519531 0-10 4.488281-10 10s4.480469 10 10 10h178v20h-436zm454 60h-472v-20h472zm0 0"/><path d="m256 412c-5.511719 0-10 4.488281-10 10s4.488281 10 10 10 10-4.488281 10-10-4.488281-10-10-10zm0 0"/></svg>