<?xml version="1.0" encoding="iso-8859-1"?>
<!-- Generator: Adobe Illustrator 19.0.0, SVG Export Plug-In . SVG Version: 6.00 Build 0)  -->
<svg version="1.1" id="Capa_1" xmlns="http://www.w3.org/2000/svg" xmlns:xlink="http://www.w3.org/1999/xlink" x="0px" y="0px"
	 viewBox="0 0 480 480" style="enable-background:new 0 0 480 480;" xml:space="preserve">
<path style="fill:#777777;" d="M280,192h-48h-32V96h80V192z"/>
<path style="fill:#B3B3B3;" d="M184,256h112v160H184V256z"/>
<g>
	<path style="fill:#D3D3D3;" d="M152,40h176l0,0c0,30.928-25.072,56-56,56h-64C177.072,96,152,70.928,152,40L152,40z"/>
	<path style="fill:#D3D3D3;" d="M280,168h-48c-4.416,0-8-3.584-8-8V96h16v56h40V168z"/>
</g>
<path style="fill:#454545;" d="M248,120h16v16h-16V120z"/>
<rect x="208" y="328" width="16" height="16"/>
<path style="fill:#FFB546;" d="M184,304h56v64h-56V304z"/>
<path style="fill:#D95354;" d="M240,304h56v64h-56V304z"/>
<g>
	<path style="fill:#168DE2;" d="M420,344h52v88h-52V344z"/>
	<path style="fill:#168DE2;" d="M368,256h52v88h-52V256z"/>
	<path style="fill:#168DE2;" d="M368,136h52v88h-52V136z"/>
	<path style="fill:#168DE2;" d="M420,48h52v88h-52V48z"/>
	<path style="fill:#168DE2;" d="M60,136h52v88H60V136z"/>
	<path style="fill:#168DE2;" d="M8,48h52v88H8V48z"/>
	<path style="fill:#168DE2;" d="M8,344h52v88H8V344z"/>
	<path style="fill:#168DE2;" d="M60,256h52v88H60V256z"/>
</g>
<g>
	<path style="fill:#74C6FF;" d="M60,48h52v88H60V48z"/>
	<path style="fill:#74C6FF;" d="M8,136h52v88H8V136z"/>
	<path style="fill:#74C6FF;" d="M8,256h52v88H8V256z"/>
	<path style="fill:#74C6FF;" d="M60,344h52v88H60V344z"/>
	<path style="fill:#74C6FF;" d="M368,344h52v88h-52V344z"/>
	<path style="fill:#74C6FF;" d="M420,256h52v88h-52V256z"/>
	<path style="fill:#74C6FF;" d="M420,136h52v88h-52V136z"/>
	<path style="fill:#74C6FF;" d="M368,48h52v88h-52V48z"/>
</g>
<path d="M112,232H8c-4.416,0-8-3.584-8-8V48c0-4.416,3.584-8,8-8h104c4.416,0,8,3.584,8,8v176C120,228.416,116.416,232,112,232z
	 M16,216h88V56H16V216z"/>
<rect x="8" y="128" width="104" height="16"/>
<rect x="52" y="48" width="16" height="176"/>
<path d="M112,440H8c-4.416,0-8-3.576-8-8V256c0-4.424,3.584-8,8-8h104c4.416,0,8,3.576,8,8v176C120,436.424,116.416,440,112,440z
	 M16,424h88V264H16V424z"/>
<rect x="8" y="336" width="104" height="16"/>
<rect x="52" y="256" width="16" height="176"/>
<path d="M472,232H368c-4.424,0-8-3.584-8-8V48c0-4.416,3.576-8,8-8h104c4.424,0,8,3.584,8,8v176C480,228.416,476.424,232,472,232z
	 M376,216h88V56h-88V216z"/>
<rect x="368" y="128" width="104" height="16"/>
<rect x="412" y="48" width="16" height="176"/>
<path d="M472,440H368c-4.424,0-8-3.576-8-8V256c0-4.424,3.576-8,8-8h104c4.424,0,8,3.576,8,8v176C480,436.424,476.424,440,472,440z
	 M376,424h88V264h-88V424z"/>
<rect x="368" y="336" width="104" height="16"/>
<rect x="412" y="256" width="16" height="176"/>
<g>
	<path style="fill:#777777;" d="M344,224v32h-48H184h-48v-32h48h112H344z"/>
	<path style="fill:#777777;" d="M296,232H184c-4.416,0-8-3.584-8-8v-32c0-4.416,3.584-8,8-8h112c4.416,0,8,3.584,8,8v32
		C304,228.416,300.416,232,296,232z M192,216h96v-16h-96V216z"/>
</g>
<path style="fill:#D3D3D3;" d="M224,152h16v40h-16V152z"/>
<g>
	<path style="fill:#454545;" d="M136,280h-24v-16h16v-48h-16v-16h24c4.416,0,8,3.584,8,8v64C144,276.416,140.416,280,136,280z"/>
	<path style="fill:#454545;" d="M368,280h-24c-4.416,0-8-3.584-8-8v-64c0-4.416,3.584-8,8-8h24v16h-16v48h16V280z"/>
</g>
<g>
</g>
<g>
</g>
<g>
</g>
<g>
</g>
<g>
</g>
<g>
</g>
<g>
</g>
<g>
</g>
<g>
</g>
<g>
</g>
<g>
</g>
<g>
</g>
<g>
</g>
<g>
</g>
<g>
</g>
</svg>
