<svg width="516" height="320" xmlns="http://www.w3.org/2000/svg">

 <g>
  <title>background</title>
  <rect fill="none" id="canvas_background" height="322" width="518" y="-1" x="-1"/>
 </g>
 <g>
  <title>Layer 1</title>
  <path id="svg_1" fill="#FF633E" d="m266.555,147.53l-64.15,-29.21c0,0 -27.532,-13.766 -46.594,0c-19.061,13.767 -68.829,56.595 -114.365,6.589c0,0 -39.446,-39.945 -39.446,24.121c0,49.771 0,89.283 0,89.283l27.797,0l28.591,0l245.499,0c0.456,0 -0.456,-0.022 0,0c14.402,0.692 28.414,0.817 45.64,-0.365c-1.379,0.095 0,0 0,0l0,0c0,-23.226 2.749,-39.024 6.265,-49.773l-0.008,-0.018l-64.107,-29.188"/>
  <path id="svg_2" fill="#F7502F" d="m24.749,265.002l0,-26.689c0,0 0,-0.385 0,-1.107c0,-6.527 0,-41.454 0,-84.841c0,-1.108 0,-2.216 0,-3.335c0,-17.113 2.815,-26.8 6.941,-31.815c-11.682,-7.275 -29.689,-11.473 -29.689,31.815c0,1.119 0,2.227 0,3.335c0,43.387 0,78.316 0,84.841c0,0.722 0,1.107 0,1.107l0,26.689c0,15.353 12.444,27.798 27.797,27.798l22.747,0c-15.352,0.001 -27.796,-12.444 -27.796,-27.798z"/>
  <path id="svg_3" fill="#E03C2F" d="m204.306,76.805c-35.739,-17.473 -32.197,36.834 -32.197,36.834c15.831,-1.996 31.403,5.788 31.403,5.788l119.992,54.636l33.388,15.201l0.008,0.018c-0.006,0.013 -0.008,0.025 -0.012,0.037c6.269,-19.192 14.996,-22.238 14.996,-22.238s-131.839,-72.804 -167.578,-90.276z"/>
  <path id="svg_4" fill="#CC251D" d="m370.157,181.325l-160.084,-83.257c0,0 -17.843,-8.917 -35.983,-6.63c0,0 -0.004,-0.066 -0.011,-0.188c-2.726,10.764 -1.97,22.391 -1.97,22.391c15.831,-1.996 31.403,5.788 31.403,5.788l119.992,54.636l33.388,15.201l0.008,0.018c-0.006,0.013 -0.008,0.025 -0.012,0.037c3.536,-10.827 23.51,-0.666 26.604,-3.567l-13.335,-4.429z"/>
  <g id="svg_5">
   <path id="svg_6" fill="#AA1713" d="m223.359,107.345c-1.454,0 -2.926,-0.382 -4.263,-1.184c-3.931,-2.359 -5.206,-7.457 -2.847,-11.388l11.914,-19.855c2.359,-3.933 7.459,-5.208 11.389,-2.847c3.931,2.359 5.206,7.457 2.847,11.388l-11.914,19.854c-1.556,2.594 -4.307,4.032 -7.126,4.032z"/>
   <path id="svg_7" fill="#AA1713" d="m248.7,120.952c-1.453,0 -2.926,-0.382 -4.263,-1.183c-3.931,-2.359 -5.206,-7.458 -2.848,-11.389l11.913,-19.855c2.36,-3.933 7.459,-5.205 11.389,-2.848c3.931,2.359 5.206,7.458 2.848,11.389l-11.913,19.855c-1.557,2.593 -4.307,4.031 -7.126,4.031z"/>
   <path id="svg_8" fill="#AA1713" d="m274.038,134.559c-1.454,0 -2.926,-0.382 -4.263,-1.184c-3.933,-2.359 -5.206,-7.457 -2.848,-11.388l11.915,-19.855c2.359,-3.933 7.458,-5.208 11.388,-2.847c3.933,2.359 5.207,7.457 2.847,11.388l-11.914,19.855c-1.556,2.594 -4.305,4.031 -7.125,4.031z"/>
   <path id="svg_9" fill="#AA1713" d="m299.377,148.167c-1.454,0 -2.926,-0.382 -4.263,-1.184c-3.933,-2.359 -5.207,-7.457 -2.847,-11.388l11.914,-19.855c2.359,-3.933 7.458,-5.206 11.388,-2.847c3.931,2.359 5.207,7.457 2.847,11.388l-11.914,19.855c-1.557,2.593 -4.306,4.031 -7.125,4.031z"/>
   <path id="svg_10" fill="#AA1713" d="m324.715,161.774c-1.453,0 -2.926,-0.382 -4.265,-1.184c-3.93,-2.359 -5.205,-7.457 -2.847,-11.388l11.914,-19.854c2.36,-3.933 7.459,-5.208 11.39,-2.847c3.93,2.359 5.205,7.457 2.847,11.388l-11.914,19.854c-1.554,2.593 -4.305,4.031 -7.125,4.031z"/>
  </g>
  <g id="svg_11">
   <path id="svg_12" fill="#FCF1D4" d="m348.516,218.026c-28.339,0.001 -57.321,-9.679 -85.411,-19.062c-43.766,-14.617 -85.103,-28.423 -123.204,-8.414c-66.942,35.155 -98.436,10.635 -99.744,9.575l10.753,-12.804l-0.115,-0.092c0.245,0.185 25.129,18.094 81.143,-11.323c44.563,-23.402 91.353,-7.773 136.601,7.338c29.839,9.966 58.026,19.368 84.992,18.058c4.66,-0.23 8.623,3.298 8.857,7.877c0.231,4.579 -3.357,8.475 -8.018,8.703c-1.945,0.099 -3.899,0.144 -5.854,0.144z"/>
   <path id="svg_13" fill="#FCF1D4" d="m464.58,204.056c2.957,-3.665 6.661,-6.366 10.708,-8.092l0.001,-0.009l-104.512,-29.982c0,0 -21.249,7.344 -21.249,71.973l0,0c46.84,-2.788 98.22,-13.051 115.052,-33.89z"/>
  </g>
  <path id="svg_14" fill="#F2D17E" d="m387.279,170.707l-16.501,-4.733c0,0 -21.249,7.344 -21.249,71.973c7.406,-0.441 14.924,-1.071 22.403,-1.898c0.27,-40.849 9.153,-58.203 15.347,-65.342z"/>
  <path id="svg_15" fill="#E03C2F" d="m29.798,238.313l28.591,0l16.932,0c-0.464,-54.747 -73.32,-85.948 -73.32,-85.948c0,48.187 0,85.948 0,85.948l27.797,0l0,0z"/>
  <path id="svg_16" fill="#CC251D" d="m24.749,222.874c0,-13.178 0,-33.801 0,-57.962c-12.675,-8.231 -22.747,-12.547 -22.747,-12.547c0,43.387 0,78.316 0,84.841c0,0.722 0,1.107 0,1.107l14.763,0l7.984,0l11.754,0c-11.008,0 -11.72,-12.955 -11.754,-15.439z"/>
  <path id="svg_17" fill="#275D68" d="m103.091,292.801l200.175,0c2.112,0.091 8.322,0.315 17.362,0.315c14.906,0 37.495,-0.614 62.03,-3.474c61.066,-7.119 103.178,-24.534 125.168,-51.759c9.648,-11.944 7.785,-29.446 -4.157,-39.091c-11.944,-9.648 -29.445,-7.787 -39.089,4.157c-22.5,27.854 -106.725,36.815 -159.323,34.289c-0.456,-0.022 -0.912,-0.032 -1.368,-0.032l-245.5,0l-28.591,0l-27.797,0l0,27.796c0,15.353 12.444,27.798 27.797,27.798l47.467,0"/>
  <path id="svg_18" fill="#204C5B" d="m504.486,199.487c-0.707,4.732 -2.639,9.344 -5.863,13.336c-8.327,10.31 -19.547,19.209 -33.582,26.679c-22.605,12.378 -52.742,20.849 -90.134,25.299c-24.036,2.86 -46.166,3.474 -60.767,3.474c-0.572,0 -1.131,-0.001 -1.68,-0.003c-0.717,-0.002 -1.42,-0.004 -2.099,-0.01l0,-0.001c-6.801,-0.051 -11.471,-0.225 -13.231,-0.301l-196.098,0l-25.3,0l-46.5,0c-1.142,0 -2.265,-0.08 -3.369,-0.219l-5.267,0c-7.151,0 -13.669,-2.702 -18.595,-7.138l0,4.401c0,15.353 12.444,27.798 27.797,27.798l47.467,0l25.826,0l200.175,0c2.112,0.091 8.322,0.315 17.362,0.315c14.906,0 37.495,-0.614 62.03,-3.474c61.066,-7.119 103.178,-24.534 125.168,-51.759c9.423,-11.665 7.861,-28.625 -3.34,-38.397z"/>
  <path id="svg_19" fill="#527A84" d="m503.669,198.792c-11.944,-9.648 -29.445,-7.786 -39.089,4.157c-16.833,20.839 -68.212,31.102 -115.052,33.892c-0.013,0.004 -35.132,10.338 -32.756,56.262c1.221,0.009 2.501,0.013 3.856,0.013c14.906,0 37.495,-0.614 62.03,-3.474c61.066,-7.119 103.178,-24.534 125.168,-51.759c9.648,-11.944 7.786,-29.445 -4.157,-39.091z"/>
  <path id="svg_20" fill="#426972" d="m503.669,198.792c-0.085,-0.07 -0.174,-0.132 -0.26,-0.2c-0.542,5.12 -2.476,10.146 -5.882,14.451c-21.543,27.226 -62.798,44.64 -122.619,51.76c-21.158,2.517 -40.835,3.295 -55.204,3.443c-2.22,6.821 -3.44,15.016 -2.931,24.858c1.221,0.009 2.501,0.013 3.856,0.013c14.906,0 37.495,-0.614 62.03,-3.474c61.066,-7.119 103.178,-24.534 125.168,-51.759c9.647,-11.945 7.785,-29.446 -4.158,-39.092z"/>
  <g id="svg_21"/>
  <g id="svg_22"/>
  <g id="svg_23"/>
  <g id="svg_24"/>
  <g id="svg_25"/>
  <g id="svg_26"/>
  <g id="svg_27"/>
  <g id="svg_28"/>
  <g id="svg_29"/>
  <g id="svg_30"/>
  <g id="svg_31"/>
  <g id="svg_32"/>
  <g id="svg_33"/>
  <g id="svg_34"/>
  <g id="svg_35"/>
 </g>
</svg>